<?xml version="1.0" standalone="no"?>
<!DOCTYPE svg PUBLIC "-//W3C//DTD SVG 20010904//EN"
 "http://www.w3.org/TR/2001/REC-SVG-20010904/DTD/svg10.dtd">
<svg version="1.0" xmlns="http://www.w3.org/2000/svg"
 width="512.000000pt" height="512.000000pt" viewBox="0 0 512.000000 512.000000"
 preserveAspectRatio="xMidYMid meet">
<metadata>
Created by potrace 1.14, written by Peter Selinger 2001-2017
</metadata>
<g transform="translate(0.000000,512.000000) scale(0.100000,-0.100000)"
fill="#000000" stroke="none">
<path d="M1805 5106 c-41 -18 -68 -52 -158 -193 -179 -283 -294 -516 -323
-655 -45 -211 53 -433 248 -558 92 -60 173 -83 293 -83 164 0 288 54 402 176
136 146 181 346 119 532 -54 159 -172 382 -331 627 -46 69 -95 134 -109 143
-35 23 -104 29 -141 11z"/>
<path d="M3193 5106 c-37 -17 -71 -61 -189 -251 -111 -177 -235 -419 -269
-527 -62 -192 -18 -389 118 -535 112 -120 237 -175 397 -176 270 -2 486 172
546 439 20 93 14 176 -22 284 -63 189 -355 693 -435 753 -35 25 -105 31 -146
13z"/>
<path d="M687 4092 c-34 -21 -181 -243 -291 -442 -92 -166 -159 -324 -176
-418 -47 -265 156 -555 428 -611 251 -52 503 72 612 300 76 161 76 281 -3 478
-79 200 -353 657 -416 694 -38 22 -117 22 -154 -1z"/>
<path d="M4277 4091 c-61 -40 -318 -463 -402 -662 -64 -152 -81 -239 -66 -343
38 -274 272 -476 549 -476 303 1 547 247 545 550 0 101 -26 185 -107 353 -100
206 -312 545 -363 578 -38 25 -118 25 -156 0z"/>
<path d="M2371 3185 c-258 -58 -459 -186 -605 -385 -133 -180 -195 -388 -196
-650 -1 -160 -44 -237 -195 -350 -196 -145 -312 -300 -378 -505 -42 -130 -50
-192 -44 -347 4 -116 10 -160 31 -233 91 -304 311 -541 605 -651 252 -95 517
-83 776 36 150 69 232 67 410 -7 141 -60 235 -83 366 -90 451 -26 858 266 995
713 26 82 28 102 28 264 1 136 -3 189 -16 237 -69 248 -206 445 -409 588 -150
107 -183 176 -192 400 -12 299 -98 510 -287 701 -126 127 -261 208 -439 260
-109 33 -346 43 -450 19z"/>
</g>
</svg>
